<svg width="1034" height="522" viewBox="0 0 1034 522" fill="none" xmlns="http://www.w3.org/2000/svg">
<path d="M0.500193 357.841L1.38672 44.4547C1.38672 20.6975 20.6295 1.42982 44.3867 1.39908L739.364 0.500019C758.699 0.475006 774.387 16.1422 774.387 35.4774C774.387 54.7948 790.047 70.4547 809.364 70.4547H993.209C1015.37 70.4547 1033.31 88.4716 1033.21 110.632L1031.65 461.721C1031.51 494.754 1004.69 521.455 971.652 521.455H501.387C479.295 521.455 461.387 503.546 461.387 481.455V437.955C461.387 415.863 443.478 397.955 421.387 397.955H40.5C18.3644 397.955 0.437575 379.977 0.500193 357.841Z" fill="white"/>
</svg>
